<svg width="221" height="61" viewBox="0 0 221 61" fill="none" xmlns="http://www.w3.org/2000/svg" class="fill-current logo w-auto h-9 mb-1 lg:h-10 xl:h-12" data-v-0c0b996b=""><path d="M201.532 25.0469H198.895V36.3926H201.532V29.8486C201.532 27.7646 202.751 27.0101 204.04 27.0101C205.637 27.0101 206.234 27.8854 206.234 29.511V36.3843H208.871V29.8403C208.871 27.7562 210.09 27.0018 211.379 27.0018C212.976 27.0018 213.573 27.8771 213.573 29.5027V36.376H216.21V29.0859C216.21 26.139 214.357 24.7218 212.017 24.7218C210.103 24.7218 208.932 25.4846 208.294 26.685C207.656 25.4846 206.486 24.7218 204.678 24.7218C203.402 24.7218 202.276 25.1595 201.532 26.3557V25.0469ZM190.511 34.6337C189.406 34.6337 188.642 34.0876 188.642 32.9956C188.642 32.0119 189.321 31.445 190.3 31.3575L193.767 31.0324V31.47C193.767 33.5541 192.32 34.6337 190.516 34.6337H190.511ZM189.26 28.0855C189.431 27.2519 190.093 26.7767 191.475 26.7767C193.177 26.7767 193.771 27.5395 193.771 28.8608V29.0817L190.199 29.4068C187.647 29.6486 186.009 30.824 186.009 33.0081C186.009 35.509 187.858 36.7177 190.093 36.7177C192.125 36.7177 193.133 35.955 193.75 35.0797V36.3885H196.4V28.8649C196.451 27.9134 196.162 26.9753 195.587 26.2265C194.774 25.222 193.291 24.7218 191.483 24.7218C188.569 24.7218 186.887 26.0514 186.545 28.1022L189.26 28.0855ZM179.263 26.7767C179.634 26.7608 180.005 26.8227 180.352 26.9587C180.699 27.0947 181.015 27.3019 181.281 27.5676C181.548 27.8333 181.758 28.1519 181.9 28.504C182.042 28.8561 182.113 29.2342 182.108 29.6152H176.325C176.496 28.0855 177.544 26.7767 179.259 26.7767H179.263ZM181.77 33.129C181.514 33.8292 180.771 34.6587 179.332 34.6587C178.555 34.67 177.805 34.3672 177.244 33.8158C176.683 33.2643 176.356 32.5086 176.333 31.7118H184.843V31.2741C184.857 30.3451 184.735 29.4192 184.481 28.5273C183.778 26.2557 182.075 24.7301 179.267 24.7301C175.866 24.7301 173.578 27.3477 173.578 30.7281C173.578 34.1085 175.789 36.7303 179.32 36.7303C182.193 36.7303 184.001 35.0922 184.603 33.129H181.77ZM173.029 27.2394V24.8385H172.367C170.668 24.8385 169.815 25.3845 169.283 26.3641V25.0553H166.645V36.401H169.283V29.957C169.283 27.9938 170.242 27.231 171.721 27.231L173.029 27.2394ZM159.286 33.3374C159.286 35.4215 160.099 36.3926 162.13 36.3926H164.894V34.2794H162.768C162.13 34.2794 161.915 33.9918 161.915 33.3374V27.231H164.894V25.0469H161.915V22.4293H159.278V25.0469H156.62V27.231H159.278L159.286 33.3374ZM143.397 32.1411C143.502 34.7587 145.737 36.7261 149.671 36.7261C153.605 36.7261 155.84 34.7629 155.84 32.0327C155.84 28.8483 153.584 27.9104 150.63 27.4478L149.354 27.2519C147.566 26.9684 146.375 26.5099 146.375 25.0469C146.375 24.0674 147.119 22.9628 149.671 22.9628C151.8 22.9628 152.65 23.9215 152.715 25.0469H155.523C155.372 23.042 153.714 20.7954 149.671 20.7954C145.737 20.7954 143.714 22.7586 143.714 25.2678C143.714 28.1855 145.717 29.4777 148.822 29.957L150.098 30.1529C151.886 30.4363 153.137 30.6781 153.137 32.237C153.137 33.5458 151.918 34.5253 149.671 34.5253C147.424 34.5253 146.27 33.6542 146.205 32.1286L143.397 32.1411ZM136.59 26.7934C138.354 26.7934 139.353 28.1022 139.435 29.6319H133.656C133.823 28.1022 134.875 26.7934 136.59 26.7934ZM139.101 33.129C138.845 33.8292 138.102 34.6587 136.663 34.6587C135.886 34.6711 135.135 34.3686 134.574 33.817C134.012 33.2653 133.685 32.5089 133.664 31.7118H142.169V31.2741C142.184 30.3451 142.062 29.4192 141.808 28.5273C141.109 26.2557 139.406 24.7301 136.598 24.7301C133.193 24.7301 130.909 27.3477 130.909 30.7281C130.909 34.1085 133.124 36.7303 136.655 36.7303C139.524 36.7303 141.332 35.0922 141.938 33.129H139.101ZM127.061 33.129C126.805 33.9626 126.101 34.592 124.825 34.592C122.485 34.592 121.786 32.5829 121.786 30.7281C121.786 28.8733 122.485 26.8684 124.825 26.8684C125.976 26.8684 126.614 27.3686 126.93 28.1189H129.775C129.113 26.114 127.455 24.7385 124.838 24.7385C121.221 24.7385 119.148 27.3561 119.148 30.7365C119.148 34.1168 121.209 36.7386 124.838 36.7386C127.54 36.7386 129.222 35.2964 129.881 33.1373L127.061 33.129ZM114.552 23.5422H117.19V21.1414H114.552V23.5422ZM114.552 36.4135H117.19V25.0469H114.552V36.4135ZM106.279 36.4135H108.916L113.171 25.0678H110.363L108.831 29.4318C108.363 30.7406 107.957 32.2703 107.64 33.4708H107.555C107.234 32.2703 106.831 30.7406 106.364 29.4318L104.832 25.0678H102.024L106.279 36.4135ZM101.727 27.2435V24.8427H101.065C99.3663 24.8427 98.5129 25.3887 97.9805 26.3682V25.0594H95.3432V36.4051H97.9805V29.957C97.9805 27.9938 98.9396 27.231 100.419 27.231L101.727 27.2435ZM87.8578 26.7934C89.6215 26.7934 90.6211 28.1022 90.7024 29.6319H84.9197C85.0904 28.1022 86.1388 26.7934 87.8578 26.7934ZM90.3651 33.129C90.1132 33.8292 89.3654 34.6587 87.9269 34.6587C87.1498 34.67 86.3997 34.3672 85.8385 33.8158C85.2773 33.2643 84.9502 32.5086 84.9279 31.7118H93.4373V31.2741C93.4516 30.3451 93.3296 29.4192 93.0756 28.5273C92.3767 26.2557 90.674 24.7301 87.8659 24.7301C84.4605 24.7301 82.1767 27.3477 82.1767 30.7281C82.1767 34.1085 84.3914 36.7303 87.9188 36.7303C90.7918 36.7303 92.6002 35.0922 93.2016 33.129H90.3651ZM68.421 32.1495C68.5307 34.7671 70.7617 36.7344 74.6995 36.7344C78.6372 36.7344 80.8682 34.7712 80.8682 32.0411C80.8682 28.8566 78.6128 27.9188 75.6544 27.4561L74.3784 27.2602C72.5904 26.9768 71.3997 26.5183 71.3997 25.0553C71.3997 24.0757 72.1434 22.9712 74.6995 22.9712C76.8248 22.9712 77.6741 23.9299 77.7391 25.0553H80.5472C80.3968 23.0504 78.7388 20.8037 74.6995 20.8037C70.7617 20.8037 68.7421 22.7669 68.7421 25.2762C68.7421 28.1939 70.7414 29.486 73.8461 29.9653L75.1221 30.1612C76.9101 30.4447 78.1658 30.6864 78.1658 32.2453C78.1658 33.5541 76.9467 34.5336 74.6995 34.5336C72.4522 34.5336 71.2941 33.6625 71.229 32.1369L68.421 32.1495Z" fill="#24242A" data-v-0c0b996b=""></path><path d="M38.0176 0C36.2612 0.00179096 34.5771 0.70785 33.3347 1.96333C32.0924 3.21881 31.3932 4.92121 31.3905 6.69717C31.3888 8.7952 30.5637 10.8068 29.0964 12.2903C27.6291 13.7738 25.6396 14.6081 23.5646 14.6099C21.807 14.6099 20.1213 15.3158 18.8785 16.5724C17.6357 17.829 16.9375 19.5333 16.9375 21.3104C16.9375 23.0875 17.6357 24.7918 18.8785 26.0484C20.1213 27.305 21.807 28.011 23.5646 28.011C24.6057 27.9892 25.6407 28.1777 26.6088 28.5655C27.5769 28.9533 28.4588 29.5325 29.2027 30.2693C29.9466 31.0061 30.5376 31.8855 30.9411 32.8562C31.3446 33.8268 31.5524 34.8691 31.5524 35.922C31.5524 36.9749 31.3446 38.0172 30.9411 38.9878C30.5376 39.9584 29.9466 40.8379 29.2027 41.5747C28.4588 42.3114 27.5769 42.8907 26.6088 43.2784C25.6407 43.6662 24.6057 43.8547 23.5646 43.833C22.2539 43.833 20.9726 44.226 19.8828 44.9622C18.7929 45.6985 17.9435 46.745 17.4419 47.9693C16.9404 49.1937 16.8091 50.541 17.0648 51.8407C17.3205 53.1405 17.9517 54.3345 18.8785 55.2715C19.8053 56.2086 20.9862 56.8468 22.2717 57.1053C23.5572 57.3639 24.8897 57.2312 26.1007 56.724C27.3116 56.2169 28.3466 55.3581 29.0748 54.2562C29.803 53.1543 30.1917 51.8588 30.1917 50.5335C30.1935 48.4355 31.0186 46.4239 32.4858 44.9404C33.9531 43.4569 35.9426 42.6226 38.0176 42.6208C39.749 42.5815 41.3964 41.8584 42.6071 40.6064C43.8179 39.3544 44.4958 37.673 44.4958 35.922C44.4958 34.171 43.8179 32.4895 42.6071 31.2375C41.3964 29.9855 39.749 29.2625 38.0176 29.2231C35.9421 29.2231 33.9515 28.3895 32.4839 26.9055C31.0162 25.4216 30.1917 23.409 30.1917 21.3104C30.1917 19.2118 31.0162 17.1992 32.4839 15.7153C33.9515 14.2314 35.9421 13.3977 38.0176 13.3977C39.749 13.3584 41.3964 12.6353 42.6071 11.3833C43.8179 10.1313 44.4958 8.44988 44.4958 6.69887C44.4958 4.94785 43.8179 3.2664 42.6071 2.01441C41.3964 0.762415 39.749 0.0393586 38.0176 0V0ZM59.0945 35.9203C59.0971 37.2461 58.7107 38.5429 57.9841 39.6466C57.2575 40.7503 56.2234 41.6112 55.0127 42.1204C53.802 42.6297 52.4691 42.7643 51.1827 42.5073C49.8963 42.2503 48.7142 41.6132 47.786 40.6766C46.8579 39.7401 46.2254 38.5462 45.9686 37.246C45.7118 35.9459 45.8422 34.5979 46.3434 33.3728C46.8446 32.1476 47.694 31.1003 48.7841 30.3635C49.8743 29.6266 51.1561 29.2333 52.4674 29.2333C54.2236 29.236 55.9072 29.9423 57.1493 31.1976C58.3915 32.4529 59.0909 34.1548 59.0945 35.9304V35.9203ZM52.4674 14.6234C51.1565 14.6234 49.8751 15.0165 48.7852 15.7529C47.6953 16.4893 46.8459 17.536 46.3444 18.7606C45.8429 19.9851 45.7119 21.3326 45.9678 22.6324C46.2238 23.9323 46.8553 25.1262 47.7825 26.0632C48.7096 27.0001 49.8908 27.638 51.1765 27.8962C52.4623 28.1544 53.7949 28.0212 55.0058 27.5135C56.2166 27.0058 57.2514 26.1465 57.9792 25.0441C58.707 23.9418 59.0951 22.646 59.0945 21.3206C59.0918 19.5446 58.3926 17.8422 57.1503 16.5867C55.9079 15.3313 54.2239 14.6252 52.4674 14.6234V14.6234ZM15.7554 35.9203C15.758 37.2455 15.3719 38.5418 14.6459 39.6452C13.92 40.7486 12.8867 41.6095 11.6767 42.1191C10.4668 42.6288 9.13458 42.7642 7.84853 42.5083C6.56249 42.2523 5.38038 41.6166 4.45169 40.6814C3.52301 39.7462 2.88944 38.5536 2.63114 37.2543C2.37283 35.9551 2.50138 34.6075 3.00052 33.3821C3.49966 32.1568 4.34697 31.1085 5.43532 30.37C6.52366 29.6316 7.80417 29.2359 9.11488 29.2333C10.8717 29.2324 12.5572 29.9357 13.8019 31.1892C15.0467 32.4427 15.7492 34.144 15.7554 35.9203ZM9.12827 14.6132C7.81741 14.6132 6.536 15.0063 5.4461 15.7427C4.35621 16.4791 3.50679 17.5258 3.0053 18.7504C2.50381 19.975 2.37277 21.3224 2.62875 22.6223C2.88473 23.9221 3.51623 25.1161 4.44339 26.053C5.37054 26.99 6.55168 27.6279 7.83744 27.886C9.12319 28.1442 10.4558 28.011 11.6667 27.5033C12.8776 26.9957 13.9123 26.1363 14.6401 25.034C15.3679 23.9316 15.756 22.6358 15.7554 21.3104C15.7527 19.5345 15.0536 17.8321 13.8112 16.5766C12.5689 15.3211 10.8848 14.615 9.12827 14.6132V14.6132ZM30.2051 35.9203C30.2077 37.2455 29.8217 38.5418 29.0957 39.6452C28.3697 40.7486 27.3364 41.6095 26.1264 42.1191C24.9165 42.6288 23.5843 42.7642 22.2982 42.5083C21.0122 42.2523 19.8301 41.6166 18.9014 40.6814C17.9727 39.7462 17.3392 38.5536 17.0808 37.2543C16.8225 35.9551 16.9511 34.6075 17.4502 33.3821C17.9494 32.1568 18.7967 31.1085 19.885 30.37C20.9734 29.6316 22.2539 29.2359 23.5646 29.2333C25.3208 29.236 27.0044 29.9423 28.2465 31.1976C29.4887 32.4529 30.1881 34.1548 30.1917 35.9304L30.2051 35.9203ZM38.0176 14.6234C36.7066 14.6227 35.4249 15.0152 34.3346 15.7512C33.2442 16.4873 32.3943 17.5337 31.8923 18.7582C31.3903 19.9827 31.2588 21.3303 31.5144 22.6303C31.77 23.9304 32.4012 25.1247 33.3282 26.062C34.2552 26.9993 35.4364 27.6375 36.7222 27.8959C38.0081 28.1544 39.3408 28.0214 40.5519 27.5138C41.763 27.0063 42.798 26.1469 43.5259 25.0445C44.2539 23.9421 44.6421 22.6461 44.6414 21.3206C44.6388 19.5452 43.94 17.8433 42.6984 16.5879C41.4568 15.3325 39.7736 14.6261 38.0176 14.6234ZM30.1917 6.71072C30.1917 8.03596 29.803 9.33145 29.0748 10.4333C28.3466 11.5352 27.3116 12.3941 26.1007 12.9012C24.8897 13.4084 23.5572 13.5411 22.2717 13.2825C20.9862 13.024 19.8053 12.3858 18.8785 11.4487C17.9517 10.5116 17.3205 9.31771 17.0648 8.01793C16.8091 6.71815 16.9404 5.37089 17.4419 4.14652C17.9435 2.92216 18.7929 1.87567 19.8828 1.13941C20.9726 0.403139 22.2539 0.0101571 23.5646 0.0101571C25.3214 0.0128437 27.0055 0.719654 28.2477 1.97567C29.49 3.23169 30.189 4.93444 30.1917 6.71072ZM38.0176 43.8431C36.7068 43.8425 35.4252 44.2349 34.3349 44.9707C33.2446 45.7066 32.3947 46.7528 31.8926 47.9772C31.3905 49.2015 31.2588 50.5488 31.5141 51.8488C31.7694 53.1488 32.4003 54.3431 33.327 55.2805C34.2537 56.2179 35.4345 56.8564 36.7202 57.1152C38.0058 57.3741 39.3385 57.2416 40.5496 56.7345C41.7607 56.2275 42.796 55.3686 43.5243 54.2667C44.2527 53.1647 44.6414 51.8691 44.6414 50.5437C44.6388 48.768 43.9402 47.0658 42.6986 45.8098C41.4571 44.5539 39.7739 43.8467 38.0176 43.8431" fill="url(#paint0_linear_1499_7207)" data-v-0c0b996b=""></path><defs data-v-0c0b996b=""><linearGradient id="paint0_linear_1499_7207" x1="30.7978" y1="0" x2="30.7978" y2="57.2442" gradientUnits="userSpaceOnUse" data-v-0c0b996b=""><stop stop-color="#53BFF9" data-v-0c0b996b=""></stop><stop offset="1" stop-color="#68DCA2" data-v-0c0b996b=""></stop></linearGradient></defs></svg>